<mxfile host="app.diagrams.net" agent="Mozilla/5.0 (Windows NT 10.0; Win64; x64) AppleWebKit/537.36 (KHTML, like Gecko) Chrome/132.0.0.0 Safari/537.36" version="26.0.6">
  <diagram name="Page-1" id="lD7iVL1-VNOX3iu9XL8T">
    <mxGraphModel dx="4274" dy="3357" grid="1" gridSize="10" guides="1" tooltips="1" connect="1" arrows="1" fold="1" page="1" pageScale="1" pageWidth="850" pageHeight="1100" math="0" shadow="0">
      <root>
        <mxCell id="0" />
        <mxCell id="1" parent="0" />
        <mxCell id="HOUEqDYzI7BHksN1TWEF-130" value="" style="group" vertex="1" connectable="0" parent="1">
          <mxGeometry x="-1390" y="-2140" width="668.75" height="1020" as="geometry" />
        </mxCell>
        <mxCell id="HOUEqDYzI7BHksN1TWEF-3" value="" style="rounded=0;whiteSpace=wrap;html=1;movable=1;resizable=1;rotatable=1;deletable=1;editable=1;locked=0;connectable=1;" vertex="1" parent="HOUEqDYzI7BHksN1TWEF-130">
          <mxGeometry x="275" width="340" height="660" as="geometry" />
        </mxCell>
        <mxCell id="HOUEqDYzI7BHksN1TWEF-14" value="" style="group" vertex="1" connectable="0" parent="HOUEqDYzI7BHksN1TWEF-130">
          <mxGeometry x="100" y="700" width="218.75" height="240" as="geometry" />
        </mxCell>
        <mxCell id="HOUEqDYzI7BHksN1TWEF-15" value="" style="rounded=0;whiteSpace=wrap;html=1;" vertex="1" parent="HOUEqDYzI7BHksN1TWEF-14">
          <mxGeometry x="20" width="198.75" height="240" as="geometry" />
        </mxCell>
        <mxCell id="HOUEqDYzI7BHksN1TWEF-17" value="Elasticsearch Engine" style="rounded=0;whiteSpace=wrap;html=1;" vertex="1" parent="HOUEqDYzI7BHksN1TWEF-14">
          <mxGeometry x="59.370000000000005" y="50" width="120" height="60" as="geometry" />
        </mxCell>
        <mxCell id="HOUEqDYzI7BHksN1TWEF-18" value="FastAPI Backend" style="rounded=0;whiteSpace=wrap;html=1;" vertex="1" parent="HOUEqDYzI7BHksN1TWEF-14">
          <mxGeometry x="59.370000000000005" y="150" width="120" height="60" as="geometry" />
        </mxCell>
        <mxCell id="HOUEqDYzI7BHksN1TWEF-19" value="Backend Search Engine" style="text;html=1;align=center;verticalAlign=middle;whiteSpace=wrap;rounded=0;fontStyle=1" vertex="1" parent="HOUEqDYzI7BHksN1TWEF-14">
          <mxGeometry x="44.370000000000005" y="10" width="150" height="30" as="geometry" />
        </mxCell>
        <mxCell id="HOUEqDYzI7BHksN1TWEF-129" value="" style="endArrow=classic;startArrow=classic;html=1;rounded=0;entryX=0.5;entryY=1;entryDx=0;entryDy=0;exitX=0.5;exitY=0;exitDx=0;exitDy=0;" edge="1" parent="HOUEqDYzI7BHksN1TWEF-14" source="HOUEqDYzI7BHksN1TWEF-18" target="HOUEqDYzI7BHksN1TWEF-17">
          <mxGeometry width="50" height="50" relative="1" as="geometry">
            <mxPoint x="490" y="170" as="sourcePoint" />
            <mxPoint x="540" y="120" as="targetPoint" />
          </mxGeometry>
        </mxCell>
        <mxCell id="HOUEqDYzI7BHksN1TWEF-13" value="&lt;b&gt;Daily Update Process&lt;/b&gt;" style="text;html=1;align=center;verticalAlign=middle;whiteSpace=wrap;rounded=0;" vertex="1" parent="HOUEqDYzI7BHksN1TWEF-130">
          <mxGeometry x="360" y="10" width="170" height="30" as="geometry" />
        </mxCell>
        <mxCell id="HOUEqDYzI7BHksN1TWEF-4" value="" style="edgeStyle=orthogonalEdgeStyle;rounded=0;orthogonalLoop=1;jettySize=auto;html=1;" edge="1" parent="HOUEqDYzI7BHksN1TWEF-130" source="HOUEqDYzI7BHksN1TWEF-5">
          <mxGeometry relative="1" as="geometry">
            <mxPoint x="380" y="471" as="targetPoint" />
          </mxGeometry>
        </mxCell>
        <mxCell id="HOUEqDYzI7BHksN1TWEF-58" value="" style="edgeStyle=orthogonalEdgeStyle;rounded=0;orthogonalLoop=1;jettySize=auto;html=1;" edge="1" parent="HOUEqDYzI7BHksN1TWEF-130" source="HOUEqDYzI7BHksN1TWEF-5" target="HOUEqDYzI7BHksN1TWEF-8">
          <mxGeometry relative="1" as="geometry" />
        </mxCell>
        <mxCell id="HOUEqDYzI7BHksN1TWEF-5" value="Data Preprocessing &amp;amp; Data Cleaning" style="rounded=0;whiteSpace=wrap;html=1;" vertex="1" parent="HOUEqDYzI7BHksN1TWEF-130">
          <mxGeometry x="320" y="470" width="120" height="60" as="geometry" />
        </mxCell>
        <mxCell id="HOUEqDYzI7BHksN1TWEF-120" style="edgeStyle=orthogonalEdgeStyle;rounded=0;orthogonalLoop=1;jettySize=auto;html=1;entryX=1;entryY=0.5;entryDx=0;entryDy=0;" edge="1" parent="HOUEqDYzI7BHksN1TWEF-130" source="HOUEqDYzI7BHksN1TWEF-8" target="HOUEqDYzI7BHksN1TWEF-17">
          <mxGeometry relative="1" as="geometry">
            <mxPoint x="463.75" y="790" as="targetPoint" />
            <Array as="points">
              <mxPoint x="390" y="780" />
            </Array>
          </mxGeometry>
        </mxCell>
        <mxCell id="HOUEqDYzI7BHksN1TWEF-8" value="Create Elasticsearch Index" style="rounded=0;whiteSpace=wrap;html=1;" vertex="1" parent="HOUEqDYzI7BHksN1TWEF-130">
          <mxGeometry x="368.75" y="570" width="190" height="60" as="geometry" />
        </mxCell>
        <mxCell id="HOUEqDYzI7BHksN1TWEF-9" value="" style="edgeStyle=orthogonalEdgeStyle;rounded=0;orthogonalLoop=1;jettySize=auto;html=1;" edge="1" parent="HOUEqDYzI7BHksN1TWEF-130" source="HOUEqDYzI7BHksN1TWEF-10" target="HOUEqDYzI7BHksN1TWEF-5">
          <mxGeometry relative="1" as="geometry" />
        </mxCell>
        <mxCell id="HOUEqDYzI7BHksN1TWEF-10" value="Data Source (TGO)" style="rounded=0;whiteSpace=wrap;html=1;" vertex="1" parent="HOUEqDYzI7BHksN1TWEF-130">
          <mxGeometry x="320" y="370" width="120" height="60" as="geometry" />
        </mxCell>
        <mxCell id="HOUEqDYzI7BHksN1TWEF-11" value="" style="edgeStyle=orthogonalEdgeStyle;rounded=0;orthogonalLoop=1;jettySize=auto;html=1;" edge="1" parent="HOUEqDYzI7BHksN1TWEF-130" source="HOUEqDYzI7BHksN1TWEF-12" target="HOUEqDYzI7BHksN1TWEF-10">
          <mxGeometry relative="1" as="geometry" />
        </mxCell>
        <mxCell id="HOUEqDYzI7BHksN1TWEF-12" value="Web Scraping&lt;br&gt;(Data Extraction)" style="rounded=0;whiteSpace=wrap;html=1;" vertex="1" parent="HOUEqDYzI7BHksN1TWEF-130">
          <mxGeometry x="320" y="270" width="120" height="60" as="geometry" />
        </mxCell>
        <mxCell id="HOUEqDYzI7BHksN1TWEF-63" value="" style="edgeStyle=orthogonalEdgeStyle;rounded=0;orthogonalLoop=1;jettySize=auto;html=1;" edge="1" parent="HOUEqDYzI7BHksN1TWEF-130" source="HOUEqDYzI7BHksN1TWEF-59" target="HOUEqDYzI7BHksN1TWEF-12">
          <mxGeometry relative="1" as="geometry" />
        </mxCell>
        <mxCell id="HOUEqDYzI7BHksN1TWEF-68" value="" style="edgeStyle=orthogonalEdgeStyle;rounded=0;orthogonalLoop=1;jettySize=auto;html=1;" edge="1" parent="HOUEqDYzI7BHksN1TWEF-130" source="HOUEqDYzI7BHksN1TWEF-59" target="HOUEqDYzI7BHksN1TWEF-12">
          <mxGeometry relative="1" as="geometry" />
        </mxCell>
        <mxCell id="HOUEqDYzI7BHksN1TWEF-69" style="edgeStyle=orthogonalEdgeStyle;rounded=0;orthogonalLoop=1;jettySize=auto;html=1;entryX=0.5;entryY=0;entryDx=0;entryDy=0;" edge="1" parent="HOUEqDYzI7BHksN1TWEF-130" target="HOUEqDYzI7BHksN1TWEF-8">
          <mxGeometry relative="1" as="geometry">
            <mxPoint x="464" y="250" as="sourcePoint" />
            <Array as="points">
              <mxPoint x="550" y="250" />
              <mxPoint x="550" y="550" />
              <mxPoint x="464" y="550" />
            </Array>
          </mxGeometry>
        </mxCell>
        <mxCell id="HOUEqDYzI7BHksN1TWEF-70" value="If Success" style="edgeLabel;html=1;align=center;verticalAlign=middle;resizable=0;points=[];" vertex="1" connectable="0" parent="HOUEqDYzI7BHksN1TWEF-69">
          <mxGeometry x="-0.1282" relative="1" as="geometry">
            <mxPoint as="offset" />
          </mxGeometry>
        </mxCell>
        <mxCell id="HOUEqDYzI7BHksN1TWEF-59" value="Extract data DAG" style="rounded=0;whiteSpace=wrap;html=1;" vertex="1" parent="HOUEqDYzI7BHksN1TWEF-130">
          <mxGeometry x="403.75" y="170" width="120" height="60" as="geometry" />
        </mxCell>
        <mxCell id="HOUEqDYzI7BHksN1TWEF-61" value="" style="edgeStyle=orthogonalEdgeStyle;rounded=0;orthogonalLoop=1;jettySize=auto;html=1;" edge="1" parent="HOUEqDYzI7BHksN1TWEF-130" source="HOUEqDYzI7BHksN1TWEF-60" target="HOUEqDYzI7BHksN1TWEF-59">
          <mxGeometry relative="1" as="geometry" />
        </mxCell>
        <mxCell id="HOUEqDYzI7BHksN1TWEF-62" value="Triggers" style="edgeLabel;html=1;align=center;verticalAlign=middle;resizable=0;points=[];" vertex="1" connectable="0" parent="HOUEqDYzI7BHksN1TWEF-61">
          <mxGeometry x="-0.0922" y="-3" relative="1" as="geometry">
            <mxPoint as="offset" />
          </mxGeometry>
        </mxCell>
        <mxCell id="HOUEqDYzI7BHksN1TWEF-60" value="Airflow Scheduler 00:30 Daily" style="rounded=0;whiteSpace=wrap;html=1;" vertex="1" parent="HOUEqDYzI7BHksN1TWEF-130">
          <mxGeometry x="403.75" y="50" width="120" height="60" as="geometry" />
        </mxCell>
        <mxCell id="HOUEqDYzI7BHksN1TWEF-88" value="" style="group;movable=1;resizable=1;rotatable=1;deletable=1;editable=1;locked=0;connectable=1;" vertex="1" connectable="0" parent="HOUEqDYzI7BHksN1TWEF-130">
          <mxGeometry y="220" width="220" height="440" as="geometry" />
        </mxCell>
        <mxCell id="HOUEqDYzI7BHksN1TWEF-86" value="" style="rounded=0;whiteSpace=wrap;html=1;movable=1;resizable=1;rotatable=1;deletable=1;editable=1;locked=0;connectable=1;" vertex="1" parent="HOUEqDYzI7BHksN1TWEF-88">
          <mxGeometry width="220" height="440" as="geometry" />
        </mxCell>
        <mxCell id="HOUEqDYzI7BHksN1TWEF-77" value="" style="edgeStyle=orthogonalEdgeStyle;rounded=0;orthogonalLoop=1;jettySize=auto;html=1;movable=1;resizable=1;rotatable=1;deletable=1;editable=1;locked=0;connectable=1;" edge="1" parent="HOUEqDYzI7BHksN1TWEF-88" source="HOUEqDYzI7BHksN1TWEF-57" target="HOUEqDYzI7BHksN1TWEF-74">
          <mxGeometry relative="1" as="geometry" />
        </mxCell>
        <mxCell id="HOUEqDYzI7BHksN1TWEF-57" value="Extract Key Terms" style="rounded=0;whiteSpace=wrap;html=1;movable=1;resizable=1;rotatable=1;deletable=1;editable=1;locked=0;connectable=1;" vertex="1" parent="HOUEqDYzI7BHksN1TWEF-88">
          <mxGeometry x="50" y="50" width="120" height="60" as="geometry" />
        </mxCell>
        <mxCell id="HOUEqDYzI7BHksN1TWEF-78" value="" style="edgeStyle=orthogonalEdgeStyle;rounded=0;orthogonalLoop=1;jettySize=auto;html=1;movable=1;resizable=1;rotatable=1;deletable=1;editable=1;locked=0;connectable=1;" edge="1" parent="HOUEqDYzI7BHksN1TWEF-88" source="HOUEqDYzI7BHksN1TWEF-74" target="HOUEqDYzI7BHksN1TWEF-75">
          <mxGeometry relative="1" as="geometry" />
        </mxCell>
        <mxCell id="HOUEqDYzI7BHksN1TWEF-74" value="LLM Processing" style="rounded=0;whiteSpace=wrap;html=1;movable=1;resizable=1;rotatable=1;deletable=1;editable=1;locked=0;connectable=1;" vertex="1" parent="HOUEqDYzI7BHksN1TWEF-88">
          <mxGeometry x="50" y="150" width="120" height="60" as="geometry" />
        </mxCell>
        <mxCell id="HOUEqDYzI7BHksN1TWEF-79" value="" style="edgeStyle=orthogonalEdgeStyle;rounded=0;orthogonalLoop=1;jettySize=auto;html=1;movable=1;resizable=1;rotatable=1;deletable=1;editable=1;locked=0;connectable=1;" edge="1" parent="HOUEqDYzI7BHksN1TWEF-88" source="HOUEqDYzI7BHksN1TWEF-75" target="HOUEqDYzI7BHksN1TWEF-76">
          <mxGeometry relative="1" as="geometry" />
        </mxCell>
        <mxCell id="HOUEqDYzI7BHksN1TWEF-75" value="Validate Synonyms" style="rounded=0;whiteSpace=wrap;html=1;movable=1;resizable=1;rotatable=1;deletable=1;editable=1;locked=0;connectable=1;" vertex="1" parent="HOUEqDYzI7BHksN1TWEF-88">
          <mxGeometry x="50" y="250" width="120" height="60" as="geometry" />
        </mxCell>
        <mxCell id="HOUEqDYzI7BHksN1TWEF-76" value="Synonym Dictionary&amp;nbsp;" style="rounded=0;whiteSpace=wrap;html=1;movable=1;resizable=1;rotatable=1;deletable=1;editable=1;locked=0;connectable=1;" vertex="1" parent="HOUEqDYzI7BHksN1TWEF-88">
          <mxGeometry x="50" y="350" width="120" height="60" as="geometry" />
        </mxCell>
        <mxCell id="HOUEqDYzI7BHksN1TWEF-87" value="&lt;b&gt;Synonym Dictionary&lt;/b&gt;" style="text;html=1;align=center;verticalAlign=middle;whiteSpace=wrap;rounded=0;movable=1;resizable=1;rotatable=1;deletable=1;editable=1;locked=0;connectable=1;" vertex="1" parent="HOUEqDYzI7BHksN1TWEF-88">
          <mxGeometry x="50" y="10" width="130" height="30" as="geometry" />
        </mxCell>
        <mxCell id="HOUEqDYzI7BHksN1TWEF-104" value="" style="group" vertex="1" connectable="0" parent="HOUEqDYzI7BHksN1TWEF-130">
          <mxGeometry x="450" y="680" width="218.75" height="340" as="geometry" />
        </mxCell>
        <mxCell id="HOUEqDYzI7BHksN1TWEF-1" value="" style="rounded=0;whiteSpace=wrap;html=1;movable=1;resizable=1;rotatable=1;deletable=1;editable=1;locked=0;connectable=1;" vertex="1" parent="HOUEqDYzI7BHksN1TWEF-104">
          <mxGeometry width="218.75" height="340" as="geometry" />
        </mxCell>
        <mxCell id="HOUEqDYzI7BHksN1TWEF-23" value="" style="edgeStyle=orthogonalEdgeStyle;rounded=0;orthogonalLoop=1;jettySize=auto;html=1;" edge="1" parent="HOUEqDYzI7BHksN1TWEF-104" source="HOUEqDYzI7BHksN1TWEF-24" target="HOUEqDYzI7BHksN1TWEF-27">
          <mxGeometry relative="1" as="geometry" />
        </mxCell>
        <mxCell id="HOUEqDYzI7BHksN1TWEF-24" value="React.js Frontend&amp;nbsp;&lt;br&gt;(User Interface &amp;amp; Display Results)" style="rounded=0;whiteSpace=wrap;html=1;" vertex="1" parent="HOUEqDYzI7BHksN1TWEF-104">
          <mxGeometry x="23.370000000000005" y="150" width="120" height="60" as="geometry" />
        </mxCell>
        <mxCell id="HOUEqDYzI7BHksN1TWEF-25" value="" style="edgeStyle=orthogonalEdgeStyle;rounded=0;orthogonalLoop=1;jettySize=auto;html=1;" edge="1" parent="HOUEqDYzI7BHksN1TWEF-104" source="HOUEqDYzI7BHksN1TWEF-26" target="HOUEqDYzI7BHksN1TWEF-24">
          <mxGeometry relative="1" as="geometry" />
        </mxCell>
        <mxCell id="HOUEqDYzI7BHksN1TWEF-26" value="Search Results" style="shape=parallelogram;perimeter=parallelogramPerimeter;whiteSpace=wrap;html=1;fixedSize=1;" vertex="1" parent="HOUEqDYzI7BHksN1TWEF-104">
          <mxGeometry x="23.370000000000005" y="50" width="120" height="60" as="geometry" />
        </mxCell>
        <mxCell id="HOUEqDYzI7BHksN1TWEF-27" value="User Query&lt;br&gt;(Thai/English)" style="shape=parallelogram;perimeter=parallelogramPerimeter;whiteSpace=wrap;html=1;fixedSize=1;" vertex="1" parent="HOUEqDYzI7BHksN1TWEF-104">
          <mxGeometry x="74.37" y="250" width="120" height="60" as="geometry" />
        </mxCell>
        <mxCell id="HOUEqDYzI7BHksN1TWEF-28" value="&lt;b&gt;Frontend&lt;/b&gt;" style="text;html=1;align=center;verticalAlign=middle;whiteSpace=wrap;rounded=0;" vertex="1" parent="HOUEqDYzI7BHksN1TWEF-104">
          <mxGeometry x="84.37" y="10" width="60" height="30" as="geometry" />
        </mxCell>
        <mxCell id="HOUEqDYzI7BHksN1TWEF-123" style="edgeStyle=orthogonalEdgeStyle;rounded=0;orthogonalLoop=1;jettySize=auto;html=1;" edge="1" parent="HOUEqDYzI7BHksN1TWEF-130" source="HOUEqDYzI7BHksN1TWEF-27" target="HOUEqDYzI7BHksN1TWEF-18">
          <mxGeometry relative="1" as="geometry">
            <mxPoint x="170" y="960" as="targetPoint" />
          </mxGeometry>
        </mxCell>
        <mxCell id="HOUEqDYzI7BHksN1TWEF-125" style="edgeStyle=orthogonalEdgeStyle;rounded=0;orthogonalLoop=1;jettySize=auto;html=1;entryX=0;entryY=0.5;entryDx=0;entryDy=0;" edge="1" parent="HOUEqDYzI7BHksN1TWEF-130" source="HOUEqDYzI7BHksN1TWEF-76" target="HOUEqDYzI7BHksN1TWEF-17">
          <mxGeometry relative="1" as="geometry" />
        </mxCell>
        <mxCell id="HOUEqDYzI7BHksN1TWEF-128" style="edgeStyle=orthogonalEdgeStyle;rounded=0;orthogonalLoop=1;jettySize=auto;html=1;entryX=0;entryY=0.5;entryDx=0;entryDy=0;exitX=1;exitY=0.5;exitDx=0;exitDy=0;" edge="1" parent="HOUEqDYzI7BHksN1TWEF-130" source="HOUEqDYzI7BHksN1TWEF-18" target="HOUEqDYzI7BHksN1TWEF-26">
          <mxGeometry relative="1" as="geometry">
            <Array as="points">
              <mxPoint x="420" y="880" />
              <mxPoint x="420" y="760" />
            </Array>
          </mxGeometry>
        </mxCell>
      </root>
    </mxGraphModel>
  </diagram>
</mxfile>
